<?xml version="1.0" encoding="utf-8"?>
<!-- Generator: Adobe Illustrator 21.1.0, SVG Export Plug-In . SVG Version: 6.00 Build 0)  -->
<svg version="1.1" id="Layer_1" xmlns="http://www.w3.org/2000/svg" xmlns:xlink="http://www.w3.org/1999/xlink" x="0px" y="0px"
	 viewBox="0 0 62 62" style="enable-background:new 0 0 62 62;" xml:space="preserve">
<style type="text/css">
	.st0{fill:#FFFD54;}
	.st1{fill:none;stroke:#000000;stroke-miterlimit:10;}
</style>
<title>模型调研平台 图标</title>
<circle class="st0" cx="30.5" cy="31.5" r="17.5"/>
<g>
	<path d="M31,2.3C15.2,2.3,2.3,15.2,2.3,31S15.2,59.7,31,59.7S59.7,46.8,59.7,31S46.8,2.3,31,2.3 M31,61C14.5,61,1,47.5,1,31
		S14.5,1,31,1s30,13.5,30,30S47.5,61,31,61"/>
</g>
<polygon class="st1" points="39.4,29.1 25.3,21.9 26.6,37.7 31,34.7 40.1,48.3 44.2,45.6 35,32 "/>
<path class="st1" d="M26.3,28.1c-0.8,0.2-1.7,0.2-2.6,0c-3.5-0.8-5.8-4.3-5-7.8s4.3-5.8,7.8-5s5.8,4.3,5,7.8
	c-0.1,0.6-0.4,1.2-0.7,1.8"/>
</svg>
