<?xml version="1.0" encoding="utf-8"?>
<!-- Generator: Adobe Illustrator 21.1.0, SVG Export Plug-In . SVG Version: 6.00 Build 0)  -->
<svg version="1.1" id="Layer_1" xmlns="http://www.w3.org/2000/svg" xmlns:xlink="http://www.w3.org/1999/xlink" x="0px" y="0px"
	 viewBox="0 0 140 140" style="enable-background:new 0 0 140 140;" xml:space="preserve">
<style type="text/css">
	.st0{fill:none;stroke:#979797;}
	.st1{fill:#FFFD54;}
	.st2{fill:none;stroke:#000000;stroke-width:2.232;stroke-miterlimit:10;}
</style>
<path class="st0" d="M-429.5-88.5h999v708.7h-999V-88.5z"/>
<circle class="st1" cx="70.8" cy="73.8" r="40.8"/>
<g>
	<path d="M70,3.1C33.1,3.1,3.1,33.1,3.1,70s30,66.9,66.9,66.9s66.9-30,66.9-66.9S106.9,3.1,70,3.1 M70,140c-38.6,0-70-31.4-70-70
		S31.4,0,70,0s70,31.4,70,70S108.6,140,70,140"/>
</g>
<path d="M63.8,80.3H34c-6.2,0-11.2-5-11.2-11.2s5-11.2,11.2-11.2c0.4,0,0.8,0,1.2,0.1c0,0,0,0,0-0.1c0-7.5,6.1-13.6,13.6-13.6
	s13.6,6.1,13.6,13.6c0,0,0,0,0,0.1c0.4,0,0.8-0.1,1.2-0.1c6.2,0,11.2,5,11.2,11.2c0,1.9-0.5,3.8-1.4,5.4c-0.3,0.6-1.1,0.8-1.7,0.5
	s-0.8-1.1-0.5-1.7c0.7-1.3,1.1-2.7,1.1-4.2c0-5.5-5.3-9.9-10.9-8.4c-0.4,0.1-0.8,0-1.1-0.3s-0.5-0.7-0.4-1.1c0.1-0.5,0.1-1,0.1-1.4
	c0-6.2-5-11.2-11.2-11.2s-11.2,5-11.2,11.2c0,0.4,0,0.9,0.1,1.4c0.1,0.4-0.1,0.8-0.4,1.1c-0.3,0.3-0.7,0.4-1.1,0.3
	c-5.7-1.5-10.9,2.8-10.9,8.4c0,4.8,3.9,8.7,8.7,8.7h29.7c0.7,0,1.2,0.6,1.2,1.2C65,79.7,64.4,80.3,63.8,80.3L63.8,80.3z"/>
<path d="M87.5,98.6c-0.7,0-1.2-0.5-1.2-1.2s0.5-1.2,1.2-1.2H116c4.6,0,8.3-3.7,8.3-8.3c0-5.3-5-9.5-10.5-8c-0.4,0.1-0.8,0-1.1-0.2
	c-0.3-0.3-0.4-0.7-0.4-1c0.1-0.5,0.1-1,0.1-1.4c0-5.9-4.8-10.7-10.7-10.7c-5.9,0-10.7,4.8-10.7,10.7c0,0.4,0,0.8,0.1,1.4
	c0,0.4-0.1,0.8-0.4,1c-0.3,0.3-0.7,0.4-1.1,0.2c-5.4-1.5-10.5,2.7-10.5,8c0,1.4,0.4,2.8,1,4c0.3,0.6,0.1,1.3-0.5,1.6
	C79,93.8,78.3,93.6,78,93c-0.9-1.6-1.3-3.4-1.3-5.2c0-5.9,4.8-10.7,10.7-10.7c0.4,0,0.8,0,1.2,0.1c0,0,0,0,0-0.1c0-7.2,5.8-13,13-13
	s13,5.8,13,13c0,0,0,0,0,0.1c0.4,0,0.8-0.1,1.2-0.1c5.9,0,10.7,4.8,10.7,10.7c0,5.9-4.8,10.7-10.7,10.7L87.5,98.6L87.5,98.6z"/>
<path class="st2" d="M88,92.4c-3.8,5-12.9,4.4-20.3-1.2s-10.2-14.3-6.4-19.3"/>
<polygon points="63.6,69.2 58.6,71.1 62.7,74.6 "/>
<polygon points="91.1,89.4 86,91.3 90.2,94.8 "/>
<path class="st2" d="M93.6,85.4c3.7-5.1,0.5-13.6-7.1-19.1c-7.6-5.4-16.7-5.7-20.4-0.6"/>
<polygon points="64.1,68.8 64.5,63.3 69,66.4 "/>
<polygon points="91.6,89.3 91.9,83.9 96.5,86.9 "/>
</svg>
