<?xml version="1.0" encoding="utf-8"?>
<!-- Generator: Adobe Illustrator 21.1.0, SVG Export Plug-In . SVG Version: 6.00 Build 0)  -->
<svg version="1.1" id="Layer_1" xmlns="http://www.w3.org/2000/svg" xmlns:xlink="http://www.w3.org/1999/xlink" x="0px" y="0px"
	 viewBox="0 0 62 62" style="enable-background:new 0 0 62 62;" xml:space="preserve">
<style type="text/css">
	.st0{fill:#FFFD54;}
	.st1{fill:none;stroke:#000000;stroke-miterlimit:10;}
</style>
<g id="Layer_1_1_">
	<title>模型调研平台 图标</title>
	<circle class="st0" cx="30.5" cy="31.5" r="17.5"/>
	<g>
		<path d="M31,2.3C15.2,2.3,2.3,15.2,2.3,31S15.2,59.7,31,59.7S59.7,46.8,59.7,31S46.8,2.3,31,2.3 M31,61C14.5,61,1,47.5,1,31
			S14.5,1,31,1s30,13.5,30,30S47.5,61,31,61"/>
	</g>
</g>
<path class="st1" d="M26.2,17.3c6.9-2.2,14.5,0.7,17.9,7.2c3.4,6.6,1.2,14.6-4.8,18.9"/>
<path class="st1" d="M35.2,45.5c-7,2.4-14.8-0.5-18.2-7.1c-3.3-6.3-1.4-14,4.2-18.4"/>
<polyline class="st1" points="14.2,20.5 21.7,19.3 22,26.5 "/>
<polyline class="st1" points="31.5,22.1 25.5,17.6 30.5,12.4 "/>
<polyline class="st1" points="46.2,44.7 38.7,43.8 40.4,36.8 "/>
<polyline class="st1" points="30,41.1 36.2,45.3 31.5,50.8 "/>
</svg>
