<?xml version="1.0" encoding="utf-8"?>
<!-- Generator: Adobe Illustrator 21.1.0, SVG Export Plug-In . SVG Version: 6.00 Build 0)  -->
<svg version="1.1" id="Layer_1" xmlns="http://www.w3.org/2000/svg" xmlns:xlink="http://www.w3.org/1999/xlink" x="0px" y="0px"
	 viewBox="0 0 140 140" style="enable-background:new 0 0 140 140;" xml:space="preserve">
<style type="text/css">
	.st0{fill:none;stroke:#979797;}
	.st1{fill:#FFFD54;}
</style>
<g transform="translate(-551 -5628)">
	<path class="st0" d="M121.5,5539.5h999v708.7h-999V5539.5z"/>
	<circle class="st1" cx="620.8" cy="5697.8" r="40.8"/>
	<g>
		<path d="M621,5631.1c-36.9,0-66.9,30-66.9,66.9s30,66.9,66.9,66.9s66.9-30,66.9-66.9S657.9,5631.1,621,5631.1 M621,5768
			c-38.6,0-70-31.4-70-70s31.4-70,70-70s70,31.4,70,70S659.6,5768,621,5768"/>
		<path d="M600,5709.5c-0.6,0-1.1-0.3-1.4-0.8c-2.5-4.7-3.9-10.2-3.9-15.8c0-16.6,11.8-30.1,26.2-30.1c14.5,0,26.2,13.5,26.2,30.1
			c0,5.6-1.3,11.1-3.9,15.8c-0.4,0.7-1.3,1-2,0.7c-2.4-1.1-4.8-2-7.3-2.7l0.8-3c2.2,0.6,4.4,1.4,6.5,2.3c1.9-4,2.9-8.4,2.9-13
			c0-14.9-10.4-27-23.1-27s-23.1,12.1-23.1,27c0,4.6,1,9,2.9,13c2.1-0.9,4.2-1.7,6.4-2.3l0.8,3c-2.5,0.7-5,1.6-7.3,2.7
			C600.5,5709.5,600.3,5709.5,600,5709.5"/>
		<path d="M622.2,5711.5l0.7,1.5l-0.2-1.5c0.3,0,0.5-0.1,0.8-0.1l0.3-0.1c0.4-0.1,0.6-0.2,0.8-0.2l0.8,1.3l-0.5-1.5
			c0.3-0.1,0.6-0.2,0.9-0.3l0.3-0.2c0.3-0.1,0.5-0.3,0.8-0.5c0.5-0.4,0.8-0.5,1.1-0.8l1.2,1l-1-1.2c0.3-0.2,0.6-0.5,0.8-0.7l0.3-0.3
			c0.3-0.3,0.5-0.5,0.7-0.7l0,0l0,0c2.9-3.3,5.1-8.2,6.4-14.4c0.1-0.6,0.2-1.1,0.3-1.8h-14.1c-0.2,0-0.4,0-0.6-0.1
			c-0.2,0.1-0.4,0.1-0.6,0.1h-4.9c-0.8,0-1.4-0.6-1.5-1.3v-0.3v0.3c-0.1,0.8-0.8,1.3-1.5,1.3h-8.2c0.1,0.6,0.2,1.2,0.3,1.8
			c2.3,11.2,7.5,18,14.3,18.8c0.4,0,0.8,0.1,1.2,0.1C621.6,5711.6,621.9,5711.6,622.2,5711.5 M621,5714.7c-0.5,0-1,0-1.6-0.1
			c-8.2-0.9-14.4-8.7-17-21.3c-0.2-1.3-0.4-2.6-0.5-3.9c-0.1-0.9,0.6-1.6,1.5-1.6h0.1h8.5l1.4-10c0.1-0.9,0.9-1.4,1.8-1.3
			c0.7,0.1,1.2,0.6,1.3,1.3l1.4,10h2.2l0.5-4.7c0.1-0.9,0.8-1.5,1.7-1.4c0.7,0.1,1.3,0.7,1.4,1.4l0.5,4.7h14.4
			c0.9,0,1.6,0.7,1.6,1.5v0.1c-0.1,1.3-0.2,2.6-0.5,3.8c-1.4,6.8-3.8,12.2-7.1,15.9c-0.3,0.3-0.5,0.6-0.8,0.8l-1.4-0.8l1.1,1.1
			c-0.5,0.5-0.9,0.8-1.2,1.1l-0.3,0.3c-0.3,0.3-0.7,0.5-1.1,0.8c-0.6,0.4-1,0.6-1.4,0.8l-0.3,0.2c-0.3,0.2-0.7,0.3-1.1,0.4l-0.3,0.1
			c-0.3,0.1-0.6,0.2-0.8,0.2l-0.8-1.4l0.5,1.5c-0.1,0-0.2,0.1-0.4,0.1c-0.3,0.1-0.7,0.1-1,0.2l-0.5,0.1c-0.4,0-0.8,0.1-1.3,0.1
			L621,5714.7"/>
		<path d="M597.2,5731.6h-3.1c0-10.7,9.3-19.5,20.8-19.5v3.1C605.2,5715.3,597.2,5722.6,597.2,5731.6 M647.9,5731.6h-3.1
			c0-9-8-16.4-17.7-16.4v-3.1C638.5,5712.2,647.9,5720.9,647.9,5731.6 M614.4,5693.3c-1,0-1.8,0.8-1.8,1.8s0.8,1.8,1.8,1.8
			s1.8-0.8,1.8-1.8l0,0C616.3,5694.1,615.4,5693.3,614.4,5693.3 M627.6,5693.3c-1,0-1.8,0.8-1.8,1.8s0.8,1.8,1.8,1.8
			s1.8-0.8,1.8-1.8l0,0C629.4,5694.1,628.6,5693.3,627.6,5693.3"/>
	</g>
</g>
</svg>
