<?xml version="1.0" encoding="utf-8"?>
<!-- Generator: Adobe Illustrator 21.1.0, SVG Export Plug-In . SVG Version: 6.00 Build 0)  -->
<svg version="1.1" id="Layer_1" xmlns="http://www.w3.org/2000/svg" xmlns:xlink="http://www.w3.org/1999/xlink" x="0px" y="0px"
	 viewBox="0 0 140 140" style="enable-background:new 0 0 140 140;" xml:space="preserve">
<style type="text/css">
	.st0{fill:none;stroke:#979797;}
	.st1{fill:#FFFD54;}
	.st2{fill:none;stroke:#000000;stroke-width:2.232;stroke-miterlimit:10;}
</style>
<path class="st0" d="M-429.5-88.5h999v708.7h-999V-88.5z"/>
<circle class="st1" cx="69.8" cy="69.8" r="40.8"/>
<g>
	<path d="M70,3.1C33.1,3.1,3.1,33.1,3.1,70s30,66.9,66.9,66.9s66.9-30,66.9-66.9S106.9,3.1,70,3.1 M70,140c-38.6,0-70-31.4-70-70
		S31.4,0,70,0s70,31.4,70,70S108.6,140,70,140"/>
</g>
<line class="st2" x1="36.6" y1="46.2" x2="72.3" y2="46.2"/>
<line class="st2" x1="28.7" y1="53.7" x2="73.1" y2="53.7"/>
<line class="st2" x1="24.3" y1="61" x2="72.9" y2="61"/>
<line class="st2" x1="27.7" y1="69.1" x2="82.5" y2="69.1"/>
<line class="st2" x1="35.3" y1="77.4" x2="88.1" y2="77.4"/>
<line class="st2" x1="44.5" y1="85.7" x2="75.3" y2="85.7"/>
<line class="st2" x1="51.7" y1="93.4" x2="70.8" y2="93.4"/>
<line class="st2" x1="64" y1="100.9" x2="72.7" y2="100.9"/>
<line class="st2" x1="47.4" y1="39.2" x2="78.9" y2="39.2"/>
</svg>
