<?xml version="1.0" encoding="utf-8"?>
<!-- Generator: Adobe Illustrator 21.1.0, SVG Export Plug-In . SVG Version: 6.00 Build 0)  -->
<svg version="1.1" id="Layer_1" xmlns="http://www.w3.org/2000/svg" xmlns:xlink="http://www.w3.org/1999/xlink" x="0px" y="0px"
	 viewBox="0 0 62 62" style="enable-background:new 0 0 62 62;" xml:space="preserve">
<style type="text/css">
	.st0{fill:#FFFD54;}
	.st1{fill:none;stroke:#000000;stroke-miterlimit:10;}
</style>
<g id="Layer_1_1_">
	<title>模型调研平台 图标</title>
	<circle class="st0" cx="30.5" cy="31.5" r="17.5"/>
	<g>
		<path d="M31,2.3C15.2,2.3,2.3,15.2,2.3,31S15.2,59.7,31,59.7S59.7,46.8,59.7,31S46.8,2.3,31,2.3 M31,61C14.5,61,1,47.5,1,31
			S14.5,1,31,1s30,13.5,30,30S47.5,61,31,61"/>
	</g>
</g>
<g id="Layer_2">
	<path class="st1" d="M36.8,29.4h5.5c2,0,3.6,1.6,3.6,3.6v10.7c0,2-1.6,3.6-3.6,3.6H19c-2,0-3.6-1.6-3.6-3.6V33c0-2,1.6-3.6,3.6-3.6
		h6.1"/>
	<polygon class="st1" points="42.5,25.6 31,12.9 19.6,25.6 27.4,25.6 27.4,42.5 34.9,42.5 34.9,25.6 	"/>
</g>
</svg>
