<?xml version="1.0" encoding="utf-8"?>
<!-- Generator: Adobe Illustrator 21.1.0, SVG Export Plug-In . SVG Version: 6.00 Build 0)  -->
<svg version="1.1" id="Layer_1" xmlns="http://www.w3.org/2000/svg" xmlns:xlink="http://www.w3.org/1999/xlink" x="0px" y="0px"
	 viewBox="0 0 140 137" style="enable-background:new 0 0 140 137;" xml:space="preserve">
<style type="text/css">
	.st0{fill:none;stroke:#979797;}
	.st1{fill:#FFFD54;}
</style>
<g transform="translate(-551 -4092)">
	<path class="st0" d="M121.5,4003.5h999v708.7h-999V4003.5z"/>
	<circle class="st1" cx="620.8" cy="4161.8" r="40.8"/>
	<g transform="translate(551 4092.003)">
		<path d="M70,3.8c-36.9,0-66.9,29-66.9,64.7s30,64.7,66.9,64.7s66.9-29,66.9-64.7S106.9,3.8,70,3.8 M70,136.2
			c-38.6,0-70-30.4-70-67.7C0,31.1,31.4,0.7,70,0.7s70,30.4,70,67.7C140,105.8,108.6,136.2,70,136.2"/>
	</g>
	<path d="M651.6,4131.1h-65.7c-0.9,0-1.6-0.7-1.6-1.5s0.7-1.5,1.6-1.5h65.7c0.9,0,1.6,0.7,1.6,1.5
		C653.2,4130.4,652.5,4131.1,651.6,4131.1 M597.2,4168.5h-11.3c-0.9,0-1.6-0.7-1.6-1.5s0.7-1.5,1.6-1.5h11.3c0.9,0,1.6,0.7,1.6,1.5
		S598,4168.5,597.2,4168.5 M603.9,4187.2h-18c-0.9,0-1.6-0.7-1.6-1.5s0.7-1.5,1.6-1.5h18c0.9,0,1.6,0.7,1.6,1.5
		S604.8,4187.2,603.9,4187.2 M603.9,4149.8h-18c-0.9,0-1.6-0.7-1.6-1.5s0.7-1.5,1.6-1.5h18c0.9,0,1.6,0.7,1.6,1.5
		C605.5,4149.1,604.8,4149.8,603.9,4149.8 M631.6,4161.7c-3.4,0-6.2,2.7-6.2,6s2.8,6,6.2,6s6.2-2.7,6.2-6
		C637.8,4164.4,635,4161.7,631.6,4161.7 M631.6,4176.7c-5.1,0-9.3-4-9.3-9s4.2-9,9.3-9s9.3,4,9.3,9
		C640.9,4172.6,636.7,4176.7,631.6,4176.7 M622.9,4181.7c0.6,0,1.1,0.1,1.6,0.4l1.6,0.6c1.4,0.5,2.5,1.9,2.5,3.4v3.7h5.9l0,0v-3.7
		c0-1.5,1.1-3,2.6-3.5l1.6-0.6c1.1-0.5,3.2-0.3,4.3,0.7l2.7,2.6l4.2-4l-2.7-2.6c-1.1-1.1-1.4-2.9-0.7-4.2l0.7-1.6
		c0.4-1.3,2-2.4,3.5-2.4h3.8v-5.7h-3.8c-1.6,0-3.1-1.1-3.6-2.5l-0.7-1.6c-0.6-1.2-0.3-3,0.8-4.1l2.7-2.6l-4.1-4.1l-2.7,2.6
		c-1.1,1-3,1.3-4.3,0.7l-1.6-0.6c-1.4-0.4-2.5-1.9-2.5-3.4v-3.7h-5.9v3.7c0,1.5-1.1,3-2.6,3.5l-1.6,0.6c-1.1,0.5-3.2,0.3-4.3-0.7
		l-2.7-2.6l-4.2,4l2.7,2.6c1.1,1.1,1.4,2.9,0.7,4.2l-0.6,1.5c-0.5,1.3-2,2.4-3.5,2.4h-3.8v5.7h3.8c1.5,0,3.1,1.1,3.6,2.5l0.7,1.6
		c0.6,1.2,0.3,3-0.8,4.1l-2.7,2.6l4.1,4.1l2.7-2.6C620.9,4182.1,621.9,4181.7,622.9,4181.7 M634.5,4192.9h-5.9c-1.7,0-3.2-1.4-3.2-3
		v-3.7c0-0.2-0.3-0.5-0.5-0.6l-2.1-0.8c-0.2,0-0.4,0.1-0.5,0.2l-2.7,2.6c-1.2,1.1-3.3,1.1-4.5,0l-4.2-4c-1.2-1.1-1.2-3-0.1-4.2
		l0.1-0.1l2.7-2.6c0.1-0.1,0.2-0.6,0.1-0.7l-0.8-1.8c-0.1-0.3-0.5-0.5-0.7-0.5h-3.8c-1.7,0-3.2-1.4-3.2-3v-5.7
		c0-1.7,1.4-3.1,3.2-3.1h3.8c0.2,0,0.6-0.2,0.6-0.4l0.7-1.7c0.1-0.3,0.1-0.7-0.1-0.8l-2.7-2.6c-1.2-1.1-1.2-3-0.1-4.2l0.1-0.1l4.1-4
		c1.2-1.1,3.3-1.1,4.5,0l2.7,2.6c0.1,0.1,0.3,0.2,0.5,0.2l0.3-0.1l1.7-0.7c0.3-0.1,0.6-0.4,0.6-0.6v-3.7c0-1.7,1.4-3.1,3.2-3.1h5.9
		c1.7,0,3.2,1.4,3.2,3.1v3.7c0,0.2,0.3,0.5,0.5,0.6l2.1,0.8c0.2,0,0.5-0.1,0.5-0.2l2.7-2.6c1.2-1.2,3.3-1.1,4.5,0l4.1,4
		c1.2,1.1,1.2,3,0.1,4.2l-0.1,0.1l-2.7,2.6c-0.1,0.1-0.2,0.6-0.1,0.7l0.8,1.8c0.1,0.3,0.5,0.5,0.7,0.5h3.8c1.7,0,3.1,1.4,3.1,3.1
		v5.7c0,1.7-1.4,3-3.1,3h-3.8c-0.2,0-0.6,0.2-0.6,0.4l-0.7,1.8c-0.1,0.3-0.1,0.7,0.1,0.8l2.7,2.6c1.2,1.1,1.2,3,0.1,4.2l-0.1,0.1
		l-4.1,4c-1.2,1.1-3.3,1.1-4.5,0l-2.7-2.6c-0.1-0.1-0.3-0.2-0.5-0.2l-0.3,0.1l-1.7,0.7c-0.3,0.1-0.5,0.4-0.5,0.7v3.7
		C637.7,4191.5,636.3,4192.9,634.5,4192.9"/>
</g>
</svg>
