<?xml version="1.0" encoding="utf-8"?>
<!-- Generator: Adobe Illustrator 21.1.0, SVG Export Plug-In . SVG Version: 6.00 Build 0)  -->
<svg version="1.1" id="Layer_1" xmlns="http://www.w3.org/2000/svg" xmlns:xlink="http://www.w3.org/1999/xlink" x="0px" y="0px"
	 viewBox="0 0 140 140" style="enable-background:new 0 0 140 140;" xml:space="preserve">
<style type="text/css">
	.st0{fill:none;stroke:#979797;}
	.st1{fill:#FFFD54;}
</style>
<g transform="translate(-551 -4858)">
	<path class="st0" d="M121.5,4769.5h999v708.7h-999V4769.5z"/>
	<circle class="st1" cx="620.8" cy="4927.8" r="40.8"/>
	<g>
		<path d="M621,4861.1c-36.9,0-66.9,30-66.9,66.9s30,66.9,66.9,66.9s66.9-30,66.9-66.9S657.9,4861.1,621,4861.1 M621,4998
			c-38.6,0-70-31.4-70-70s31.4-70,70-70s70,31.4,70,70S659.6,4998,621,4998"/>
		<path d="M640.1,4910.2v5.2c0.8-0.2,1.4-0.5,1.9-1c0.4-0.5,0.7-1.1,0.7-1.7c0-0.7-0.2-1.2-0.6-1.6
			C641.6,4910.8,640.9,4910.5,640.1,4910.2 M638.6,4906.7v-4.6c-0.7,0.2-1.2,0.5-1.6,0.8c-0.4,0.3-0.6,0.8-0.6,1.5
			c0,0.6,0.2,1.1,0.5,1.4C637.3,4906.1,637.9,4906.4,638.6,4906.7 M640.1,4898.5v1.3c0.9,0.1,1.6,0.3,2.2,0.5
			c0.6,0.3,1.2,0.7,1.6,1.2c0.4,0.4,0.6,0.8,0.8,1.3c0.2,0.4,0.3,0.8,0.3,1.2c0,0.4-0.2,0.7-0.4,1c-0.3,0.3-0.6,0.4-1.1,0.4
			c-0.8,0-1.3-0.4-1.5-1.3c-0.3-1-0.9-1.7-1.9-2v5c1,0.3,1.8,0.5,2.4,0.7c0.6,0.2,1.1,0.5,1.6,1c0.5,0.4,0.9,1,1.1,1.6
			c0.3,0.6,0.4,1.3,0.4,2c0,0.9-0.2,1.8-0.6,2.6c-0.4,0.8-1.1,1.4-1.9,1.9c-0.8,0.5-1.8,0.8-3,0.9v1.2c0,0.5-0.1,0.8-0.2,1
			c-0.1,0.2-0.3,0.3-0.6,0.3s-0.5-0.1-0.6-0.3c-0.1-0.2-0.2-0.4-0.2-0.8v-1.4c-0.9-0.1-1.7-0.3-2.4-0.7c-0.7-0.3-1.3-0.8-1.7-1.2
			c-0.5-0.5-0.8-1-1-1.6c-0.2-0.5-0.3-1-0.3-1.6c0-0.4,0.2-0.7,0.4-1c0.3-0.3,0.7-0.5,1.1-0.5c0.4,0,0.7,0.1,0.9,0.2
			c0.2,0.2,0.4,0.4,0.5,0.7c0.2,0.6,0.4,1.1,0.6,1.5c0.2,0.3,0.4,0.7,0.7,0.9c0.3,0.3,0.8,0.5,1.3,0.7v-5.6c-1.1-0.3-2-0.6-2.7-1
			s-1.3-0.9-1.7-1.5c-0.5-0.7-0.7-1.5-0.7-2.6c0-1.4,0.4-2.5,1.3-3.4c0.9-0.9,2.1-1.4,3.8-1.5v-1.3c0-0.7,0.2-1,0.8-1
			S640.1,4897.8,640.1,4898.5 M623.5,4953.3c0,1.8-1.4,3.3-3.3,3.4c-1.8,0-3.3-1.4-3.4-3.3v-0.1c0-1.8,1.5-3.3,3.4-3.3
			C622.1,4950.1,623.5,4951.5,623.5,4953.3 M633.7,4947.2h-26.9c-0.9,0-1.6-0.7-1.6-1.6l0,0v-35.4c0-0.9,0.7-1.6,1.6-1.6h10.9
			c0.9,0,1.6,0.7,1.6,1.6s-0.7,1.6-1.6,1.6h-9.4v32.3h23.8v-14.9c0-0.9,0.7-1.6,1.6-1.6c0.9,0,1.6,0.7,1.6,1.6v16.4
			C635.2,4946.5,634.5,4947.2,633.7,4947.2"/>
		<path d="M639.8,4964h-39.2c-0.9,0-1.6-0.7-1.6-1.6v-61.5c0-0.9,0.7-1.6,1.6-1.6h20v3.1h-18.4v58.4h36V4926h3.1v36.4
			C641.4,4963.3,640.7,4964,639.8,4964"/>
		<path d="M640,4893.8c-10.9,0-19.8,6.9-19.8,15.3c0,5.8,4.4,11.2,11.2,13.8c0.8,0.3,1.2,1.2,0.9,2c0,0.1,0,0.1-0.1,0.2
			c-0.2,0.5-0.4,0.7-0.5,1c-0.6,1-1.3,1.9-2.1,2.7c3-0.6,5.6-1.9,7.6-3.9c0.3-0.3,0.8-0.5,1.2-0.5c0.5,0,1,0.1,1.6,0.1
			c10.9,0,19.8-6.9,19.8-15.3C659.8,4900.6,650.9,4893.8,640,4893.8 M626,4932.2c-0.6,0-1.1,0-1.7-0.1c-0.7,0-1.3-0.6-1.4-1.3
			c-0.1-0.7,0.2-1.4,0.8-1.7c2-1,3.7-2.4,4.9-4.1c-7.1-3.3-11.6-9.4-11.6-16c0-10.2,10.3-18.4,22.9-18.4s22.9,8.3,22.9,18.4
			c0,10.2-10.3,18.4-22.9,18.4c-0.4,0-0.7,0-1.1,0C635.7,4930.5,631.1,4932.2,626,4932.2"/>
	</g>
</g>
</svg>
