<?xml version="1.0" encoding="utf-8"?>
<!-- Generator: Adobe Illustrator 21.1.0, SVG Export Plug-In . SVG Version: 6.00 Build 0)  -->
<svg version="1.1" id="Layer_1" xmlns="http://www.w3.org/2000/svg" xmlns:xlink="http://www.w3.org/1999/xlink" x="0px" y="0px"
	 viewBox="0 0 140 140" style="enable-background:new 0 0 140 140;" xml:space="preserve">
<style type="text/css">
	.st0{fill:none;stroke:#979797;}
	.st1{fill:#FFFD54;}
</style>
<g>
	<path class="st0" d="M-429.5-88.5h999v708.7h-999V-88.5z"/>
	<circle class="st1" cx="71.2" cy="66.5" r="40.8"/>
	<g>
		<path d="M70,3.1C33.1,3.1,3.1,33.1,3.1,70s30,66.9,66.9,66.9s66.9-30,66.9-66.9S106.9,3.1,70,3.1 M70,140c-38.6,0-70-31.4-70-70
			S31.4,0,70,0s70,31.4,70,70S108.6,140,70,140"/>
		<path d="M69.2,33.4c-8.6,0-17.2,1.4-25.3,4.1C41.2,38.4,39,41.3,39,44v30.7c0,3,1.8,8.1,4.2,10.7c11.8,12.1,19.1,18.3,25.9,18.3
			c6.8,0,14.1-6.2,25.9-18.3c2.5-2.6,4.2-7.7,4.2-10.7V44c0-2.7-2.2-5.6-4.8-6.4C86.3,34.8,77.8,33.4,69.2,33.4 M69.2,106.8
			c-7.9,0-15.7-6.5-28.1-19.3C38,84.2,36,78.3,36,74.7V44c0-4.1,3-8.2,7-9.4c17-5.6,35.6-5.6,52.6,0c3.9,1.2,6.9,5.4,6.9,9.4v30.7
			c0,3.6-2,9.6-5.1,12.8C84.8,100.3,77.1,106.8,69.2,106.8"/>
		<path d="M48.4,45.9v28.7c0,0.9,1,3.6,1.6,4.2c4.5,4.6,15.1,15.5,19.2,15.5s14.6-10.8,19.1-15.4c0.7-0.7,1.7-3.4,1.7-4.3V45.9
			C76.4,41.8,61.9,41.8,48.4,45.9 M69.2,97.5c-5,0-13.3-8.1-21.4-16.4c-1.2-1.3-2.4-4.8-2.5-6.4v-30c0-0.7,0.4-1.3,1.1-1.5
			c14.9-4.8,30.9-4.8,45.6,0c0.6,0.2,1.1,0.8,1.1,1.5v29.9c0,1.6-1.3,5.1-2.5,6.4C82.4,89.4,74.1,97.5,69.2,97.5"/>
		<path d="M69.2,96.5c-0.9,0-1.6-0.7-1.6-1.6V41.5c0-0.9,0.8-1.5,1.6-1.5c0.8,0,1.5,0.7,1.5,1.5v53.4C70.7,95.8,70,96.5,69.2,96.5"
			/>
	</g>
</g>
</svg>
