<?xml version="1.0" encoding="utf-8"?>
<!-- Generator: Adobe Illustrator 21.1.0, SVG Export Plug-In . SVG Version: 6.00 Build 0)  -->
<svg version="1.1" id="Layer_1" xmlns="http://www.w3.org/2000/svg" xmlns:xlink="http://www.w3.org/1999/xlink" x="0px" y="0px"
	 viewBox="0 0 140 140" style="enable-background:new 0 0 140 140;" xml:space="preserve">
<style type="text/css">
	.st0{fill:none;stroke:#979797;}
	.st1{fill:#FFFD54;}
</style>
<path class="st0" d="M-429.5-88.1h999v708.7h-999V-88.1z"/>
<circle class="st1" cx="69.8" cy="69.8" r="40.8"/>
<g>
	<path d="M70,3.1C33.1,3.1,3.1,33.1,3.1,70s30,66.9,66.9,66.9s66.9-30,66.9-66.9S106.9,3.1,70,3.1 M70,140c-38.6,0-70-31.4-70-70
		S31.4,0,70,0s70,31.4,70,70S108.6,140,70,140"/>
	<path d="M69.2,38.6c-17.8,0-32.3,14.5-32.3,32.3s14.5,32.3,32.3,32.3s32.3-14.5,32.3-32.3S87,38.6,69.2,38.6 M69.2,106.3
		c-19.5,0-35.4-15.9-35.4-35.4s15.9-35.4,35.4-35.4s35.4,15.9,35.4,35.4S88.7,106.3,69.2,106.3"/>
	<path d="M64.6,66.3l-7.1,16.3l16.2-7.1l7.1-16.3L64.6,66.3z M54.5,87.1c-0.9,0-1.6-0.7-1.6-1.6c0-0.2,0-0.4,0.1-0.6l9-20.4
		c0.2-0.4,0.4-0.7,0.8-0.8l20.4-8.9c0.6-0.3,1.3-0.1,1.7,0.3c0.5,0.5,0.6,1.1,0.3,1.7l-8.9,20.4c-0.2,0.4-0.4,0.7-0.8,0.8l-20.3,9
		C55,87,54.7,87.1,54.5,87.1L54.5,87.1z"/>
	<path d="M72.9,76.1c-0.4,0-0.8-0.2-1.1-0.5l-9.5-9.5c-0.6-0.6-0.6-1.6,0-2.2l0,0c0.6-0.6,1.6-0.6,2.2,0l9.5,9.5
		c0.6,0.6,0.6,1.6,0,2.2C73.7,76,73.3,76.1,72.9,76.1"/>
</g>
</svg>
