<?xml version="1.0" encoding="utf-8"?>
<!-- Generator: Adobe Illustrator 21.1.0, SVG Export Plug-In . SVG Version: 6.00 Build 0)  -->
<svg version="1.1" id="Layer_1" xmlns="http://www.w3.org/2000/svg" xmlns:xlink="http://www.w3.org/1999/xlink" x="0px" y="0px"
	 viewBox="0 0 140 140" style="enable-background:new 0 0 140 140;" xml:space="preserve">
<style type="text/css">
	.st0{fill:none;stroke:#979797;}
	.st1{fill:#FFFD54;}
</style>
<g transform="translate(-551 -1781)">
	<path class="st0" d="M121.5,1692.5h999v708.7h-999V1692.5z"/>
	<circle class="st1" cx="621.8" cy="1846.8" r="40.8"/>
	<g>
		<path d="M621,1784.1c-36.9,0-66.9,30-66.9,66.9s30,66.9,66.9,66.9s66.9-30,66.9-66.9S657.9,1784.1,621,1784.1 M621,1921
			c-38.6,0-70-31.4-70-70s31.4-70,70-70s70,31.4,70,70S659.6,1921,621,1921"/>
		<path d="M595.7,1887.1c-0.9,0-1.6-0.7-1.6-1.6v-67.4c0-0.9,0.8-1.5,1.6-1.5s1.5,0.7,1.5,1.5v67.4
			C597.2,1886.4,596.5,1887.1,595.7,1887.1"/>
		<path d="M608.8,1863c6.3,0,12.6,2.9,18.6,5.8c6,2.8,11.7,5.5,17.3,5.5c4,0,7.7-1.4,11.1-4.4c-2.8-4.5-5.6-10.1-8.7-17.1
			c-0.2-0.4-0.2-0.8,0-1.2c2.8-7.6,5.4-15.4,7.9-23.7c-3.2,2-6.6,3-10.3,3c-6.3,0-12.6-2.9-18.6-5.8c-6-2.8-11.7-5.5-17.3-5.5
			c-4.2,0-8,1.6-11.6,4.8v42.5C600.8,1864.3,604.6,1863,608.8,1863 M644.7,1877.4c-6.3,0-12.6-2.9-18.6-5.8
			c-6-2.8-11.7-5.5-17.3-5.5c-4.4,0-8.4,1.7-12.1,5.2c-0.6,0.6-1.6,0.6-2.2-0.1c-0.3-0.3-0.4-0.7-0.4-1.1v-46.5
			c0-0.4,0.2-0.8,0.5-1.1c4.3-4.1,9-6.1,14.2-6.1c6.3,0,12.6,2.9,18.6,5.8c6,2.8,11.7,5.5,17.3,5.5c4.4,0,8.4-1.7,12.1-5.2
			c0.2-0.8,1.1-1.3,1.9-1.1s1.3,1.1,1.1,1.9c-0.1,0.3-0.2,0.5-0.4,0.7c-2.9,10-5.9,19.1-9.1,28c3.2,7.2,6.1,12.8,9,17.2
			c0.4,0.6,0.3,1.5-0.2,2C654.6,1875.4,650,1877.4,644.7,1877.4"/>
	</g>
</g>
</svg>
