<?xml version="1.0" encoding="utf-8"?>
<!-- Generator: Adobe Illustrator 21.1.0, SVG Export Plug-In . SVG Version: 6.00 Build 0)  -->
<svg version="1.1" id="Layer_1" xmlns="http://www.w3.org/2000/svg" xmlns:xlink="http://www.w3.org/1999/xlink" x="0px" y="0px"
	 viewBox="0 0 140 140" style="enable-background:new 0 0 140 140;" xml:space="preserve">
<style type="text/css">
	.st0{fill:none;stroke:#979797;}
	.st1{fill:#FFFD54;}
	.st2{fill:none;stroke:#000000;stroke-width:3.6;stroke-miterlimit:10;}
</style>
<path class="st0" d="M-429.5-88.5h999v708.7h-999V-88.5z"/>
<circle class="st1" cx="70.2" cy="69.5" r="40.8"/>
<g>
	<path d="M70,3.1C33.1,3.1,3.1,33.1,3.1,70s30,66.9,66.9,66.9s66.9-30,66.9-66.9S106.9,3.1,70,3.1 M70,140c-38.6,0-70-31.4-70-70
		S31.4,0,70,0s70,31.4,70,70S108.6,140,70,140"/>
</g>
<polyline class="st2" points="28,99.3 28,36.7 112.9,36.7 112.9,98.9 "/>
<line class="st2" x1="21.6" y1="98.5" x2="120.5" y2="98.9"/>
<polyline class="st2" points="102.8,58.5 76,83.2 54,62.9 39,84.5 "/>
</svg>
